<?xml version="1.0" encoding="UTF-8"?>
<svg xmlns="http://www.w3.org/2000/svg" width="800.000" height="600.000" viewBox="0.0 0.0 800.000 600.000" version="1.1">
  <desc>Produce by Acme CAD Converter</desc>
<path d="M315.73 444.46L315.73 420.79Z"
fill="none" stroke="black" stroke-width="0.5"/>
<path d="M315.73 420.79L311 420.79"
fill="none" stroke="black" stroke-width="0.5"/>
<path d="M311 420.79L311 382.92Z"
fill="none" stroke="black" stroke-width="0.5"/>
<path d="M311 382.92L315.73 382.92"
fill="none" stroke="black" stroke-width="0.5"/>
<path d="M400.94 444.46L400.94 420.79Z"
fill="none" stroke="black" stroke-width="0.5"/>
<path d="M400.94 420.79L405.67 420.79"
fill="none" stroke="black" stroke-width="0.5"/>
<path d="M405.67 420.79L405.67 382.92Z"
fill="none" stroke="black" stroke-width="0.5"/>
<path d="M405.67 382.92L400.94 382.92"
fill="none" stroke="black" stroke-width="0.5"/>
<path d="M315.72 269.29L400.93 269.29"
fill="none" stroke="black" stroke-width="0.5"/>
<path d="M373.47 354.5L373.47 350.71Z"
fill="none" stroke="black" stroke-width="0.5"/>
<path d="M373.47 350.71L375.37 350.71"
fill="none" stroke="black" stroke-width="0.5"/>
<path d="M375.37 350.71L375.37 348.82Z"
fill="none" stroke="black" stroke-width="0.5"/>
<path d="M375.37 348.82L369.68 348.82"
fill="none" stroke="black" stroke-width="0.5"/>
<path d="M369.68 348.82L369.68 350.71Z"
fill="none" stroke="black" stroke-width="0.5"/>
<path d="M369.68 350.71L371.58 350.71"
fill="none" stroke="black" stroke-width="0.5"/>
<path d="M371.58 350.71L371.58 354.5Z"
fill="none" stroke="black" stroke-width="0.5"/>
<path d="M343.18 354.5L343.18 350.71Z"
fill="none" stroke="black" stroke-width="0.5"/>
<path d="M343.18 350.71L341.28 350.71"
fill="none" stroke="black" stroke-width="0.5"/>
<path d="M341.28 350.71L341.28 348.82Z"
fill="none" stroke="black" stroke-width="0.5"/>
<path d="M341.28 348.82L346.96 348.82"
fill="none" stroke="black" stroke-width="0.5"/>
<path d="M346.96 348.82L346.96 350.71Z"
fill="none" stroke="black" stroke-width="0.5"/>
<path d="M346.96 350.71L345.07 350.71"
fill="none" stroke="black" stroke-width="0.5"/>
<path d="M345.07 350.71L345.07 354.5Z"
fill="none" stroke="black" stroke-width="0.5"/>
<path d="M400.93 269.29L400.93 296.75Z"
fill="none" stroke="black" stroke-width="0.5"/>
<path d="M400.93 296.75L397.14 296.75"
fill="none" stroke="black" stroke-width="0.5"/>
<path d="M397.14 296.75L397.14 294.86Z"
fill="none" stroke="black" stroke-width="0.5"/>
<path d="M397.14 294.86L395.25 294.86"
fill="none" stroke="black" stroke-width="0.5"/>
<path d="M395.25 294.86L395.25 300.54Z"
fill="none" stroke="black" stroke-width="0.5"/>
<path d="M395.25 300.54L397.07 300.54"
fill="none" stroke="black" stroke-width="0.5"/>
<path d="M397.07 300.54L397.07 298.64Z"
fill="none" stroke="black" stroke-width="0.5"/>
<path d="M397.07 298.64L400.93 298.64"
fill="none" stroke="black" stroke-width="0.5"/>
<path d="M400.93 327.05L397.14 327.05"
fill="none" stroke="black" stroke-width="0.5"/>
<path d="M397.14 327.05L397.14 328.94Z"
fill="none" stroke="black" stroke-width="0.5"/>
<path d="M397.14 328.94L395.25 328.94"
fill="none" stroke="black" stroke-width="0.5"/>
<path d="M395.25 328.94L395.25 323.26Z"
fill="none" stroke="black" stroke-width="0.5"/>
<path d="M395.25 323.26L397.07 323.26"
fill="none" stroke="black" stroke-width="0.5"/>
<path d="M397.07 323.26L397.07 325.15Z"
fill="none" stroke="black" stroke-width="0.5"/>
<path d="M397.07 325.15L400.93 325.15"
fill="none" stroke="black" stroke-width="0.5"/>
<path d="M315.72 327.05L319.51 327.05"
fill="none" stroke="black" stroke-width="0.5"/>
<path d="M319.51 327.05L319.51 328.94Z"
fill="none" stroke="black" stroke-width="0.5"/>
<path d="M319.51 328.94L321.4 328.94"
fill="none" stroke="black" stroke-width="0.5"/>
<path d="M321.4 328.94L321.4 323.26Z"
fill="none" stroke="black" stroke-width="0.5"/>
<path d="M321.4 323.26L319.44 323.26"
fill="none" stroke="black" stroke-width="0.5"/>
<path d="M319.44 323.26L319.44 325.15Z"
fill="none" stroke="black" stroke-width="0.5"/>
<path d="M319.44 325.15L315.72 325.15"
fill="none" stroke="black" stroke-width="0.5"/>
<path d="M315.72 269.29L315.72 296.75Z"
fill="none" stroke="black" stroke-width="0.5"/>
<path d="M315.72 296.75L319.51 296.75"
fill="none" stroke="black" stroke-width="0.5"/>
<path d="M319.51 296.75L319.51 294.86Z"
fill="none" stroke="black" stroke-width="0.5"/>
<path d="M319.51 294.86L321.4 294.86"
fill="none" stroke="black" stroke-width="0.5"/>
<path d="M321.4 294.86L321.4 300.54Z"
fill="none" stroke="black" stroke-width="0.5"/>
<path d="M321.4 300.54L319.44 300.54"
fill="none" stroke="black" stroke-width="0.5"/>
<path d="M319.44 300.54L319.44 298.64Z"
fill="none" stroke="black" stroke-width="0.5"/>
<path d="M319.44 298.64L315.72 298.64"
fill="none" stroke="black" stroke-width="0.5"/>
<path d="M315.73 444.46L343.19 444.46"
fill="none" stroke="black" stroke-width="0.5"/>
<path d="M343.19 444.46L343.19 440.67Z"
fill="none" stroke="black" stroke-width="0.5"/>
<path d="M343.19 440.67L341.3 440.67"
fill="none" stroke="black" stroke-width="0.5"/>
<path d="M341.3 440.67L341.3 438.78Z"
fill="none" stroke="black" stroke-width="0.5"/>
<path d="M341.3 438.78L346.98 438.78"
fill="none" stroke="black" stroke-width="0.5"/>
<path d="M346.98 438.78L346.98 440.67Z"
fill="none" stroke="black" stroke-width="0.5"/>
<path d="M345.08 440.67L346.98 440.67"
fill="none" stroke="black" stroke-width="0.5"/>
<path d="M345.08 440.67L345.08 444.46Z"
fill="none" stroke="black" stroke-width="0.5"/>
<path d="M400.94 444.46L373.48 444.46"
fill="none" stroke="black" stroke-width="0.5"/>
<path d="M373.48 444.46L373.48 440.67Z"
fill="none" stroke="black" stroke-width="0.5"/>
<path d="M373.48 440.67L375.38 440.67"
fill="none" stroke="black" stroke-width="0.5"/>
<path d="M375.38 440.67L375.38 438.76Z"
fill="none" stroke="black" stroke-width="0.5"/>
<path d="M375.38 438.76L369.7 438.76"
fill="none" stroke="black" stroke-width="0.5"/>
<path d="M369.7 438.76L369.7 440.67Z"
fill="none" stroke="black" stroke-width="0.5"/>
<path d="M371.59 440.67L369.7 440.67"
fill="none" stroke="black" stroke-width="0.5"/>
<path d="M371.59 440.67L371.59 444.46Z"
fill="none" stroke="black" stroke-width="0.5"/>
<path d="M400.94 444.46L423.66 444.46"
fill="none" stroke="black" stroke-width="0.5"/>
<path d="M423.66 444.46L423.66 440.67Z"
fill="none" stroke="black" stroke-width="0.5"/>
<path d="M423.66 440.67L421.77 440.67"
fill="none" stroke="black" stroke-width="0.5"/>
<path d="M421.77 440.67L421.77 438.78Z"
fill="none" stroke="black" stroke-width="0.5"/>
<path d="M421.77 438.78L427.45 438.78"
fill="none" stroke="black" stroke-width="0.5"/>
<path d="M427.45 438.78L427.45 440.67Z"
fill="none" stroke="black" stroke-width="0.5"/>
<path d="M427.45 440.67L425.55 440.67"
fill="none" stroke="black" stroke-width="0.5"/>
<path d="M425.55 440.67L425.55 444.46Z"
fill="none" stroke="black" stroke-width="0.5"/>
<path d="M315.73 444.46L293.01 444.46"
fill="none" stroke="black" stroke-width="0.5"/>
<path d="M293.01 444.46L293.01 440.67Z"
fill="none" stroke="black" stroke-width="0.5"/>
<path d="M293.01 440.67L294.91 440.67"
fill="none" stroke="black" stroke-width="0.5"/>
<path d="M294.91 440.67L294.91 438.78Z"
fill="none" stroke="black" stroke-width="0.5"/>
<path d="M294.91 438.78L289.23 438.78"
fill="none" stroke="black" stroke-width="0.5"/>
<path d="M289.23 438.78L289.23 440.67Z"
fill="none" stroke="black" stroke-width="0.5"/>
<path d="M289.23 440.67L291.12 440.67"
fill="none" stroke="black" stroke-width="0.5"/>
<path d="M291.12 440.67L291.12 444.46Z"
fill="none" stroke="black" stroke-width="0.5"/>
<path d="M253.25 363.04L255.14 363.04"
fill="none" stroke="black" stroke-width="0.5"/>
<path d="M463.42 363.04L461.53 363.04"
fill="none" stroke="black" stroke-width="0.5"/>
<path d="M371.59 363.04L373.48 363.04"
fill="none" stroke="black" stroke-width="0.5"/>
<path d="M343.19 363.04L345.08 363.04"
fill="none" stroke="black" stroke-width="0.5"/>
<path d="M268.4 444.46L264.12 443.77"
fill="none" stroke="black" stroke-width="0.5"/>
<path d="M264.12 443.77L259.91 442.71"
fill="none" stroke="black" stroke-width="0.5"/>
<path d="M259.91 442.71L255.82 441.28"
fill="none" stroke="black" stroke-width="0.5"/>
<path d="M255.82 441.28L251.88 439.48"
fill="none" stroke="black" stroke-width="0.5"/>
<path d="M251.88 439.48L248.11 437.34"
fill="none" stroke="black" stroke-width="0.5"/>
<path d="M248.11 437.34L244.55 434.88"
fill="none" stroke="black" stroke-width="0.5"/>
<path d="M244.55 434.88L241.22 432.1"
fill="none" stroke="black" stroke-width="0.5"/>
<path d="M241.22 432.1L238.15 429.03"
fill="none" stroke="black" stroke-width="0.5"/>
<path d="M238.15 429.03L235.38 425.7"
fill="none" stroke="black" stroke-width="0.5"/>
<path d="M235.38 425.7L232.91 422.14"
fill="none" stroke="black" stroke-width="0.5"/>
<path d="M232.91 422.14L230.77 418.37"
fill="none" stroke="black" stroke-width="0.5"/>
<path d="M230.77 418.37L228.97 414.43"
fill="none" stroke="black" stroke-width="0.5"/>
<path d="M228.97 414.43L227.54 410.34"
fill="none" stroke="black" stroke-width="0.5"/>
<path d="M227.54 410.34L226.48 406.13"
fill="none" stroke="black" stroke-width="0.5"/>
<path d="M226.48 406.13L225.8 401.85"
fill="none" stroke="black" stroke-width="0.5"/>
<path d="M490.88 401.85L490.68 405.78"
fill="none" stroke="black" stroke-width="0.5"/>
<path d="M490.68 405.78L490.11 409.67"
fill="none" stroke="black" stroke-width="0.5"/>
<path d="M490.11 409.67L489.2 413.49"
fill="none" stroke="black" stroke-width="0.5"/>
<path d="M489.2 413.49L487.94 417.21"
fill="none" stroke="black" stroke-width="0.5"/>
<path d="M487.94 417.21L486.34 420.8"
fill="none" stroke="black" stroke-width="0.5"/>
<path d="M486.34 420.8L484.42 424.23"
fill="none" stroke="black" stroke-width="0.5"/>
<path d="M484.42 424.23L482.2 427.47"
fill="none" stroke="black" stroke-width="0.5"/>
<path d="M482.2 427.47L479.69 430.49"
fill="none" stroke="black" stroke-width="0.5"/>
<path d="M479.69 430.49L476.91 433.26"
fill="none" stroke="black" stroke-width="0.5"/>
<path d="M476.91 433.26L473.89 435.78"
fill="none" stroke="black" stroke-width="0.5"/>
<path d="M473.89 435.78L470.65 438"
fill="none" stroke="black" stroke-width="0.5"/>
<path d="M470.65 438L467.22 439.92"
fill="none" stroke="black" stroke-width="0.5"/>
<path d="M467.22 439.92L463.63 441.52"
fill="none" stroke="black" stroke-width="0.5"/>
<path d="M463.63 441.52L459.91 442.78"
fill="none" stroke="black" stroke-width="0.5"/>
<path d="M459.91 442.78L456.09 443.69"
fill="none" stroke="black" stroke-width="0.5"/>
<path d="M456.09 443.69L452.2 444.25"
fill="none" stroke="black" stroke-width="0.5"/>
<path d="M452.2 444.25L448.28 444.46"
fill="none" stroke="black" stroke-width="0.5"/>
<path d="M248.43 246.56L250.32 246.56"
fill="none" stroke="black" stroke-width="0.5"/>
<path d="M248.43 168.92L250.32 168.92"
fill="none" stroke="black" stroke-width="0.5"/>
<path d="M466.18 165.14L447.24 165.14"
fill="none" stroke="black" stroke-width="0.5"/>
<path d="M447.24 165.14L447.24 160.4Z"
fill="none" stroke="black" stroke-width="0.5"/>
<path d="M447.24 160.4L400.85 160.4"
fill="none" stroke="black" stroke-width="0.5"/>
<path d="M400.85 165.14L400.85 160.4Z"
fill="none" stroke="black" stroke-width="0.5"/>
<path d="M466.18 249.4L447.24 249.4"
fill="none" stroke="black" stroke-width="0.5"/>
<path d="M447.24 249.4L447.24 254.13Z"
fill="none" stroke="black" stroke-width="0.5"/>
<path d="M447.24 254.13L400.85 254.13"
fill="none" stroke="black" stroke-width="0.5"/>
<path d="M400.85 254.13L400.85 249.4Z"
fill="none" stroke="black" stroke-width="0.5"/>
<path d="M466.18 249.4L466.18 230.46Z"
fill="none" stroke="black" stroke-width="0.5"/>
<path d="M466.18 230.46L470.91 230.46"
fill="none" stroke="black" stroke-width="0.5"/>
<path d="M470.91 230.46L470.91 184.07Z"
fill="none" stroke="black" stroke-width="0.5"/>
<path d="M470.91 184.07L466.18 184.07"
fill="none" stroke="black" stroke-width="0.5"/>
<path d="M334.67 395.7L382 395.7"
fill="none" stroke="black" stroke-width="0.5"/>
<path d="M334.67 395.7L334.67 399.01Z"
fill="none" stroke="black" stroke-width="0.5"/>
<path d="M334.67 399.01L382.03 399.01"
fill="none" stroke="black" stroke-width="0.5"/>
<path d="M382.03 399.01L382.03 395.7Z"
fill="none" stroke="black" stroke-width="0.5"/>
<path d="M424.61 395.7L471.94 395.7"
fill="none" stroke="black" stroke-width="0.5"/>
<path d="M424.61 399.01L424.61 395.7Z"
fill="none" stroke="black" stroke-width="0.5"/>
<path d="M424.61 399.01L471.94 399.01"
fill="none" stroke="black" stroke-width="0.5"/>
<path d="M471.94 399.01L471.94 395.7Z"
fill="none" stroke="black" stroke-width="0.5"/>
<path d="M244.73 395.7L292.07 395.7"
fill="none" stroke="black" stroke-width="0.5"/>
<path d="M244.73 399.01L244.73 395.7Z"
fill="none" stroke="black" stroke-width="0.5"/>
<path d="M244.73 399.01L292.07 399.01"
fill="none" stroke="black" stroke-width="0.5"/>
<path d="M292.07 399.01L292.07 395.7Z"
fill="none" stroke="black" stroke-width="0.5"/>
<path d="M275.89 345.02L275.89 302.42Z"
fill="none" stroke="black" stroke-width="0.5"/>
<path d="M233.28 259.82L230.44 259.82"
fill="none" stroke="black" stroke-width="0.5"/>
<path d="M233.28 259.82L237.74 260.85"
fill="none" stroke="black" stroke-width="0.5"/>
<path d="M237.74 260.85L242.08 262.27"
fill="none" stroke="black" stroke-width="0.5"/>
<path d="M242.08 262.27L246.29 264.05"
fill="none" stroke="black" stroke-width="0.5"/>
<path d="M246.29 264.05L250.34 266.18"
fill="none" stroke="black" stroke-width="0.5"/>
<path d="M250.34 266.18L254.18 268.65"
fill="none" stroke="black" stroke-width="0.5"/>
<path d="M254.18 268.65L257.8 271.44"
fill="none" stroke="black" stroke-width="0.5"/>
<path d="M257.8 271.44L261.17 274.54"
fill="none" stroke="black" stroke-width="0.5"/>
<path d="M261.17 274.54L264.26 277.9"
fill="none" stroke="black" stroke-width="0.5"/>
<path d="M264.26 277.9L267.05 281.52"
fill="none" stroke="black" stroke-width="0.5"/>
<path d="M267.05 281.52L269.52 285.37"
fill="none" stroke="black" stroke-width="0.5"/>
<path d="M269.52 285.37L271.66 289.41"
fill="none" stroke="black" stroke-width="0.5"/>
<path d="M271.66 289.41L273.44 293.62"
fill="none" stroke="black" stroke-width="0.5"/>
<path d="M273.44 293.62L274.85 297.97"
fill="none" stroke="black" stroke-width="0.5"/>
<path d="M274.85 297.97L275.89 302.42"
fill="none" stroke="black" stroke-width="0.5"/>
<path d="M230.44 345.02L230.44 326.09Z"
fill="none" stroke="black" stroke-width="0.5"/>
<path d="M230.44 326.09L225.71 326.09"
fill="none" stroke="black" stroke-width="0.5"/>
<path d="M225.71 326.09L225.71 288.22Z"
fill="none" stroke="black" stroke-width="0.5"/>
<path d="M230.44 288.22L225.71 288.22"
fill="none" stroke="black" stroke-width="0.5"/>
<path d="M447.24 208.21L409.38 208.21"
fill="none" stroke="black" stroke-width="0.5"/>
<path d="M447.24 208.21L447.24 204.9Z"
fill="none" stroke="black" stroke-width="0.5"/>
<path d="M447.24 204.9L409.38 204.9"
fill="none" stroke="black" stroke-width="0.5"/>
<path d="M409.38 208.21L409.38 204.9Z"
fill="none" stroke="black" stroke-width="0.5"/>
<path d="M275.89 345.02L261.69 345.02"
fill="none" stroke="black" stroke-width="0.5"/>
<path d="M261.69 345.02L261.69 349.76Z"
fill="none" stroke="black" stroke-width="0.5"/>
<path d="M261.69 349.76L242.75 349.76"
fill="none" stroke="black" stroke-width="0.5"/>
<path d="M242.75 349.76L242.75 345.02Z"
fill="none" stroke="black" stroke-width="0.5"/>
<path d="M242.75 345.02L230.44 345.02"
fill="none" stroke="black" stroke-width="0.5"/>
<path d="M356.92 430.26L356.92 411.32Z"
fill="none" stroke="black" stroke-width="0.5"/>
<path d="M356.92 411.32L360.23 411.32"
fill="none" stroke="black" stroke-width="0.5"/>
<path d="M360.23 411.32L360.23 430.26Z"
fill="none" stroke="black" stroke-width="0.5"/>
<path d="M356.92 430.26L360.14 430.26"
fill="none" stroke="black" stroke-width="0.5"/>
<path d="M248.43 246.56L248.43 255.08Z"
fill="none" stroke="black" stroke-width="0.5"/>
<path d="M250.32 246.56L250.32 255.08Z"
fill="none" stroke="black" stroke-width="0.5"/>
<path d="M248.43 160.41L248.43 168.93Z"
fill="none" stroke="black" stroke-width="0.5"/>
<path d="M250.32 160.41L250.32 168.93Z"
fill="none" stroke="black" stroke-width="0.5"/>
<path d="M315.72 298.65L315.72 325.15Z"
fill="none" stroke="black" stroke-width="0.5"/>
<path d="M400.93 325.15L400.93 298.64Z"
fill="none" stroke="black" stroke-width="0.5"/>
<path d="M268.4 444.46L291.12 444.46"
fill="none" stroke="black" stroke-width="0.5"/>
<path d="M345.08 444.46L371.59 444.46"
fill="none" stroke="black" stroke-width="0.5"/>
<path d="M425.55 444.46L448.27 444.46"
fill="none" stroke="black" stroke-width="0.5"/>
<path d="M230.44 288.22L230.44 259.82Z"
fill="none" stroke="black" stroke-width="0.5"/>
<path d="M381.92 249.4L400.85 249.4"
fill="none" stroke="black" stroke-width="0.5"/>
<path d="M381.92 165.14L400.85 165.14"
fill="none" stroke="black" stroke-width="0.5"/>
<path d="M466.18 184.08L466.18 165.14Z"
fill="none" stroke="black" stroke-width="0.5"/>
<path d="M281.65 363.04L283.54 363.04"
fill="none" stroke="black" stroke-width="0.5"/>
<path d="M435.02 363.04L433.13 363.04"
fill="none" stroke="black" stroke-width="0.5"/>
<path d="M315.72 327.04L315.72 382.9Z"
fill="none" stroke="black" stroke-width="0.5"/>
<path d="M400.93 327.04L400.93 382.9Z"
fill="none" stroke="black" stroke-width="0.5"/>
<path d="M315.72 354.5L343.18 354.5"
fill="none" stroke="black" stroke-width="0.5"/>
<path d="M345.07 354.5L371.58 354.5"
fill="none" stroke="black" stroke-width="0.5"/>
<path d="M373.47 354.5L400.93 354.5"
fill="none" stroke="black" stroke-width="0.5"/>
<path d="M315.72 354.5L283.53 354.5"
fill="none" stroke="black" stroke-width="0.5"/>
<path d="M281.64 354.5L255.13 354.5"
fill="none" stroke="black" stroke-width="0.5"/>
<path d="M253.24 354.5L225.78 354.5"
fill="none" stroke="black" stroke-width="0.5"/>
<path d="M225.78 354.5L225.78 401.83Z"
fill="none" stroke="black" stroke-width="0.5"/>
<path d="M253.24 354.5L253.24 363.02Z"
fill="none" stroke="black" stroke-width="0.5"/>
<path d="M255.13 354.5L255.13 363.02Z"
fill="none" stroke="black" stroke-width="0.5"/>
<path d="M281.64 354.5L281.64 363.02Z"
fill="none" stroke="black" stroke-width="0.5"/>
<path d="M283.53 354.5L283.53 363.02Z"
fill="none" stroke="black" stroke-width="0.5"/>
<path d="M343.18 354.5L343.18 363.02Z"
fill="none" stroke="black" stroke-width="0.5"/>
<path d="M345.07 354.5L345.07 363.02Z"
fill="none" stroke="black" stroke-width="0.5"/>
<path d="M371.58 354.5L371.58 363.02Z"
fill="none" stroke="black" stroke-width="0.5"/>
<path d="M373.47 354.5L373.47 363.02Z"
fill="none" stroke="black" stroke-width="0.5"/>
<path d="M400.93 354.5L433.11 354.5"
fill="none" stroke="black" stroke-width="0.5"/>
<path d="M435.01 354.5L461.52 354.5"
fill="none" stroke="black" stroke-width="0.5"/>
<path d="M463.41 354.5L490.86 354.5"
fill="none" stroke="black" stroke-width="0.5"/>
<path d="M433.11 354.5L433.11 363.02Z"
fill="none" stroke="black" stroke-width="0.5"/>
<path d="M435.01 354.5L435.01 363.02Z"
fill="none" stroke="black" stroke-width="0.5"/>
<path d="M461.52 354.5L461.52 363.02Z"
fill="none" stroke="black" stroke-width="0.5"/>
<path d="M463.41 354.5L463.41 363.02Z"
fill="none" stroke="black" stroke-width="0.5"/>
<path d="M490.86 354.5L490.86 401.83Z"
fill="none" stroke="black" stroke-width="0.5"/>
<path d="M277.77 169.87L277.77 255.08Z"
fill="none" stroke="black" stroke-width="0.5"/>
<path d="M287.24 169.87L287.24 255.08Z"
fill="none" stroke="black" stroke-width="0.5"/>
<path d="M296.71 169.87L296.71 255.08Z"
fill="none" stroke="black" stroke-width="0.5"/>
<path d="M306.18 169.87L306.18 255.08Z"
fill="none" stroke="black" stroke-width="0.5"/>
<path d="M315.64 169.87L315.64 255.08Z"
fill="none" stroke="black" stroke-width="0.5"/>
<path d="M325.11 169.87L325.11 255.08Z"
fill="none" stroke="black" stroke-width="0.5"/>
<path d="M334.58 169.87L334.58 255.08Z"
fill="none" stroke="black" stroke-width="0.5"/>
<path d="M273.04 160.41L273.04 250.35Z"
fill="none" stroke="black" stroke-width="0.5"/>
<path d="M282.51 160.41L282.51 250.35Z"
fill="none" stroke="black" stroke-width="0.5"/>
<path d="M291.98 160.41L291.98 250.35Z"
fill="none" stroke="black" stroke-width="0.5"/>
<path d="M301.44 160.41L301.44 250.35Z"
fill="none" stroke="black" stroke-width="0.5"/>
<path d="M310.91 160.41L310.91 250.35Z"
fill="none" stroke="black" stroke-width="0.5"/>
<path d="M320.38 160.41L320.38 250.35Z"
fill="none" stroke="black" stroke-width="0.5"/>
<path d="M329.84 160.41L329.84 250.35Z"
fill="none" stroke="black" stroke-width="0.5"/>
<path d="M339.31 160.41L339.31 250.35Z"
fill="none" stroke="black" stroke-width="0.5"/>
<path d="M248.43 160.41L225.7 160.41"
fill="none" stroke="black" stroke-width="0.5"/>
<path d="M225.7 160.41L225.7 192.6Z"
fill="none" stroke="black" stroke-width="0.5"/>
<path d="M225.7 194.49L225.7 221Z"
fill="none" stroke="black" stroke-width="0.5"/>
<path d="M225.7 222.89L225.7 255.08Z"
fill="none" stroke="black" stroke-width="0.5"/>
<path d="M225.7 255.08L248.43 255.08"
fill="none" stroke="black" stroke-width="0.5"/>
<path d="M225.7 192.6L235.17 192.6"
fill="none" stroke="black" stroke-width="0.5"/>
<path d="M235.17 192.6L235.17 194.49Z"
fill="none" stroke="black" stroke-width="0.5"/>
<path d="M235.17 194.49L225.7 194.49"
fill="none" stroke="black" stroke-width="0.5"/>
<path d="M225.7 221L235.17 221"
fill="none" stroke="black" stroke-width="0.5"/>
<path d="M235.17 221L235.17 222.89Z"
fill="none" stroke="black" stroke-width="0.5"/>
<path d="M235.17 222.89L225.7 222.89"
fill="none" stroke="black" stroke-width="0.5"/>
<path d="M379.07 221.94L378.89 221.12"
fill="none" stroke="black" stroke-width="0.5"/>
<path d="M378.89 221.12L378.36 220.46"
fill="none" stroke="black" stroke-width="0.5"/>
<path d="M378.36 220.46L377.6 220.1"
fill="none" stroke="black" stroke-width="0.5"/>
<path d="M377.6 220.1L376.76 220.1"
fill="none" stroke="black" stroke-width="0.5"/>
<path d="M376.76 220.1L376 220.46"
fill="none" stroke="black" stroke-width="0.5"/>
<path d="M376 220.46L375.47 221.12"
fill="none" stroke="black" stroke-width="0.5"/>
<path d="M375.47 221.12L375.29 221.94"
fill="none" stroke="black" stroke-width="0.5"/>
<path d="M375.29 221.94L375.47 222.77"
fill="none" stroke="black" stroke-width="0.5"/>
<path d="M375.47 222.77L376 223.42"
fill="none" stroke="black" stroke-width="0.5"/>
<path d="M376 223.42L376.76 223.79"
fill="none" stroke="black" stroke-width="0.5"/>
<path d="M376.76 223.79L377.6 223.79"
fill="none" stroke="black" stroke-width="0.5"/>
<path d="M377.6 223.79L378.36 223.42"
fill="none" stroke="black" stroke-width="0.5"/>
<path d="M378.36 223.42L378.89 222.77"
fill="none" stroke="black" stroke-width="0.5"/>
<path d="M378.89 222.77L379.07 221.94"
fill="none" stroke="black" stroke-width="0.5"/>
<path d="M379.07 193.54L378.89 192.72"
fill="none" stroke="black" stroke-width="0.5"/>
<path d="M378.89 192.72L378.36 192.06"
fill="none" stroke="black" stroke-width="0.5"/>
<path d="M378.36 192.06L377.6 191.7"
fill="none" stroke="black" stroke-width="0.5"/>
<path d="M377.6 191.7L376.76 191.7"
fill="none" stroke="black" stroke-width="0.5"/>
<path d="M376.76 191.7L376 192.06"
fill="none" stroke="black" stroke-width="0.5"/>
<path d="M376 192.06L375.47 192.72"
fill="none" stroke="black" stroke-width="0.5"/>
<path d="M375.47 192.72L375.29 193.54"
fill="none" stroke="black" stroke-width="0.5"/>
<path d="M375.29 193.54L375.47 194.36"
fill="none" stroke="black" stroke-width="0.5"/>
<path d="M375.47 194.36L376 195.02"
fill="none" stroke="black" stroke-width="0.5"/>
<path d="M376 195.02L376.76 195.39"
fill="none" stroke="black" stroke-width="0.5"/>
<path d="M376.76 195.39L377.6 195.39"
fill="none" stroke="black" stroke-width="0.5"/>
<path d="M377.6 195.39L378.36 195.02"
fill="none" stroke="black" stroke-width="0.5"/>
<path d="M378.36 195.02L378.89 194.36"
fill="none" stroke="black" stroke-width="0.5"/>
<path d="M378.89 194.36L379.07 193.54"
fill="none" stroke="black" stroke-width="0.5"/>
<path d="M381.91 160.41L381.91 255.08Z"
fill="none" stroke="black" stroke-width="0.5"/>
<path d="M250.32 255.08L381.91 255.08"
fill="none" stroke="black" stroke-width="0.5"/>
<path d="M250.32 160.41L381.91 160.41"
fill="none" stroke="black" stroke-width="0.5"/>
</svg>
